<svg xmlns="http://www.w3.org/2000/svg" viewBox="0 0 1200 900" role="img" aria-labelledby="title desc">
  <title id="title">Vogelsang Profilbild</title>
  <desc id="desc">Illustration einer lächelnden Person mit Rieslingflasche in einem Mosel-Weinberg bei Sonnenuntergang.</desc>
  <defs>
    <linearGradient id="sky" x1="0" x2="1" y1="0" y2="1">
      <stop offset="0" stop-color="#4b5870"/>
      <stop offset="0.38" stop-color="#f3a960"/>
      <stop offset="0.72" stop-color="#ffdf9a"/>
      <stop offset="1" stop-color="#6a3b31"/>
    </linearGradient>
    <linearGradient id="river" x1="0" x2="1">
      <stop offset="0" stop-color="#38515a"/>
      <stop offset="0.55" stop-color="#f2bc78"/>
      <stop offset="1" stop-color="#2f4f53"/>
    </linearGradient>
    <linearGradient id="bottle" x1="0" x2="1">
      <stop offset="0" stop-color="#080b0c"/>
      <stop offset="0.45" stop-color="#18211e"/>
      <stop offset="0.78" stop-color="#020303"/>
    </linearGradient>
    <filter id="soft" x="-20%" y="-20%" width="140%" height="140%">
      <feGaussianBlur stdDeviation="8"/>
    </filter>
  </defs>
  <rect width="1200" height="900" fill="url(#sky)"/>
  <circle cx="985" cy="178" r="58" fill="#fff1ba"/>
  <path d="M0 315 C160 215 260 250 404 302 C535 350 612 245 760 278 C910 312 1012 242 1200 288 L1200 900 L0 900Z" fill="#23322e" opacity=".86"/>
  <path d="M0 405 C180 355 325 395 470 440 C650 495 740 430 900 430 C1030 430 1110 475 1200 515 L1200 900 L0 900Z" fill="#2f412c"/>
  <path d="M650 520 C770 478 890 448 980 384 C1060 325 1124 292 1200 300 L1200 406 C1126 410 1046 446 963 506 C861 579 771 624 650 650Z" fill="url(#river)" opacity=".88"/>
  <g opacity=".55" stroke="#89a35a" stroke-width="9">
    <path d="M-35 735 C180 615 316 584 525 540"/>
    <path d="M-20 820 C210 690 362 650 575 605"/>
    <path d="M840 690 C945 612 1065 560 1228 528"/>
    <path d="M902 780 C1008 706 1105 668 1218 640"/>
  </g>
  <g filter="url(#soft)" opacity=".38">
    <ellipse cx="365" cy="655" rx="260" ry="150" fill="#000"/>
  </g>
  <g transform="translate(534 162)">
    <path d="M141 238 C121 188 131 108 202 92 C274 76 329 116 343 184 C359 265 321 322 245 337 C196 346 160 309 141 238Z" fill="#8b522f"/>
    <path d="M95 75 C122 3 243 -10 311 35 C371 75 398 145 384 214 C362 172 329 141 280 133 C207 121 151 145 123 207 C84 161 74 119 95 75Z" fill="#5e311c"/>
    <path d="M115 190 C130 115 198 81 272 101 C345 121 378 189 359 265 C341 337 281 379 209 361 C137 343 96 268 115 190Z" fill="#c98256"/>
    <path d="M111 222 C82 205 74 246 97 274" fill="none" stroke="#c98256" stroke-width="24" stroke-linecap="round"/>
    <path d="M357 226 C393 209 395 258 363 286" fill="none" stroke="#c98256" stroke-width="24" stroke-linecap="round"/>
    <path d="M151 269 C198 311 264 316 314 272" fill="none" stroke="#6f321e" stroke-width="10" stroke-linecap="round"/>
    <circle cx="190" cy="222" r="10" fill="#372016"/>
    <circle cx="291" cy="222" r="10" fill="#372016"/>
    <path d="M122 152 C158 104 248 83 334 150 C309 128 287 180 246 160 C205 141 169 160 130 204Z" fill="#4e2a19"/>
    <path d="M153 406 C218 452 305 445 365 404 C430 476 449 610 449 738 L35 738 C42 592 67 472 153 406Z" fill="#f4efe4"/>
    <path d="M170 397 C202 478 282 488 346 399" fill="none" stroke="#d9cfc1" stroke-width="16"/>
    <path d="M208 390 L239 466 L272 390" fill="none" stroke="#b46f3f" stroke-width="10" stroke-linecap="round"/>
  </g>
  <g transform="translate(273 190) rotate(-13)">
    <rect x="112" y="0" width="76" height="315" rx="28" fill="url(#bottle)"/>
    <rect x="90" y="236" width="120" height="420" rx="54" fill="url(#bottle)"/>
    <rect x="100" y="370" width="100" height="150" rx="8" fill="#f6efe1"/>
    <text x="150" y="428" text-anchor="middle" font-family="Georgia, serif" font-size="24" fill="#2a2520" letter-spacing="2">VOGELSANG</text>
    <text x="150" y="462" text-anchor="middle" font-family="Georgia, serif" font-size="16" fill="#5d5045">RIESLING</text>
    <text x="150" y="490" text-anchor="middle" font-family="Georgia, serif" font-size="13" fill="#5d5045">TROCKEN</text>
  </g>
  <rect width="1200" height="900" fill="rgba(0,0,0,.08)"/>
</svg>
